<svg width="425" height="260" viewBox="0 0 425 260" fill="none" xmlns="http://www.w3.org/2000/svg" xmlns:xlink="http://www.w3.org/1999/xlink">
<path d="M3.9579 113.054V162.054L13.0644 160.489V140.119L31.2775 136.99V157.36L40.3841 155.795V106.795L31.2775 108.36V128.59L13.0644 131.719V111.489L3.9579 113.054Z" fill="white"/>
<path d="M58.0145 103.765L44.4927 155.089L53.8062 153.488L56.7037 142.07L73.537 139.178L76.4345 149.6L85.748 148L72.2262 101.323L58.0145 103.765ZM58.9114 133.291L64.7754 110.164L65.4653 110.045L71.3294 131.157L58.9114 133.291Z" fill="white"/>
<path d="M86.9149 129.179C86.9149 141.779 94.6417 147.452 106.784 145.365C118.926 143.279 125.963 135.07 125.963 124.43V122.61L116.856 124.174V126.134C116.856 131.034 113.407 135.967 106.784 137.105C100.161 138.243 96.0215 134.614 96.0215 127.754V115.714C96.0215 108.854 100.161 103.803 106.784 102.665C113.407 101.527 116.856 105.274 116.856 110.174V111.574L125.963 110.01V108.75C125.963 98.1096 118.926 92.3188 106.784 94.4052C94.6417 96.4916 86.9149 104.819 86.9149 117.419V129.179Z" fill="white"/>
<path d="M173.777 83.8736L160.945 86.0786L141.559 109.01L140.869 109.128V89.5282L131.763 91.093V140.093L140.869 138.528V121.168L146.112 115.227L161.497 134.984L172.742 133.051L152.459 108.047L173.777 83.8736Z" fill="white"/>
<path d="M0.334961 48.1019V49.5619L4.94736 48.7694V61.3094L6.54396 61.035V48.495L11.1367 47.7058V46.2458L0.334961 48.1019Z" fill="white"/>
<path d="M12.9113 45.9409V59.9409L14.429 59.6801V54.7401C14.429 52.3001 15.7497 50.8132 17.6025 50.4948C19.2583 50.2103 20.3029 50.8908 20.3029 52.8508V58.6708L21.801 58.4134V52.4934C21.801 49.8734 20.1058 48.7447 17.9967 49.1071C16.0059 49.4492 15.0992 50.505 14.6261 51.4462L14.429 51.4801V45.6801L12.9113 45.9409Z" fill="white"/>
<path d="M23.9262 53.0882C23.9262 56.0882 25.8974 57.9895 28.8934 57.4747C31.515 57.0242 32.6189 55.3345 33.2299 54.0695L31.929 53.6131C31.4165 54.7811 30.5689 55.8268 28.8934 56.1147C26.9618 56.4466 25.6214 55.3569 25.4834 53.3806L33.3876 52.0224V51.2024C33.3876 48.2224 31.4756 46.711 28.7555 47.1784C25.9565 47.6593 23.9262 50.1482 23.9262 53.0882ZM25.5031 52.0972C25.72 50.22 26.942 48.85 28.7555 48.5384C30.5295 48.2336 31.7319 49.0869 31.8304 51.01L25.5031 52.0972Z" fill="white"/>
<path d="M1.14312 81.9031L2.56232 82.0992C2.85798 80.8084 3.74498 79.776 5.32187 79.505C6.91848 79.2307 7.72663 79.9718 7.72663 81.3718V82.0918L4.43487 82.6574C2.38492 83.0097 0.84745 84.2539 0.84745 86.2339C0.84745 88.1939 2.38492 89.0297 4.39545 88.6842C6.28772 88.359 7.11559 87.3168 7.54923 86.4623L7.76605 86.425V87.825L9.22468 87.5744V81.1944C9.22468 78.8944 7.76605 77.785 5.32187 78.205C2.89741 78.6216 1.59647 80.1852 1.14312 81.9031ZM2.3455 85.9564C2.3455 84.8564 3.25221 84.1206 4.49401 83.9073L7.72663 83.3518V83.5918C7.72663 85.6118 6.46512 87.0486 4.61227 87.3669C3.25221 87.6006 2.3455 87.0564 2.3455 85.9564Z" fill="white"/>
<path d="M11.9873 77.3397V87.0997L13.5051 86.8389V81.8989C13.5051 79.4589 14.8257 77.972 16.6786 77.6536C18.3343 77.3691 19.379 78.0496 19.379 80.0096V85.8296L20.877 85.5721V79.6521C20.877 77.0321 19.1819 75.9034 17.0728 76.2658C15.082 76.6079 14.1161 77.6939 13.6628 78.6918L13.4656 78.7257V77.0857L11.9873 77.3397Z" fill="white"/>
<path d="M32.8776 69.5101L31.3598 69.7709V75.6309L31.1627 75.6647C30.6108 74.8196 29.5661 74.0391 27.5556 74.3846C25.0325 74.8181 23.022 77.1636 23.022 80.3236C23.022 83.4636 25.0325 85.1381 27.5556 84.7046C29.5661 84.3591 30.6108 83.2196 31.2021 82.098L31.3992 82.0641V83.7641L32.8776 83.5101V69.5101ZM27.9301 75.6602C29.9406 75.3147 31.3795 76.5475 31.3795 78.8875C31.3795 81.2275 29.9406 82.9347 27.9301 83.2802C25.9392 83.6223 24.5595 82.4194 24.5595 80.0594C24.5595 77.6994 25.9392 76.0023 27.9301 75.6602Z" fill="white"/>
<path d="M187.809 60.888L189.327 60.6272V54.9872L189.524 54.9533C190.076 55.8185 191.12 56.599 193.111 56.2569C195.634 55.8234 197.665 53.4545 197.665 50.3145C197.665 47.1545 195.634 45.5034 193.111 45.9369C191.12 46.279 190.076 47.4185 189.484 48.5201L189.287 48.554V46.874L187.809 47.128V60.888ZM192.737 54.9612C190.746 55.3033 189.307 54.0906 189.307 51.7506C189.307 49.4106 190.746 47.6833 192.737 47.3412C194.747 46.9958 196.127 48.2187 196.127 50.5787C196.127 52.9387 194.747 54.6158 192.737 54.9612Z" fill="white"/>
<path d="M201.395 44.7935L199.917 45.0475V54.8075L201.434 54.5467V48.5467C201.434 46.8667 202.341 45.9309 203.76 45.687L205.318 45.4195V44.0795L203.997 44.3064C202.716 44.5266 201.967 45.0353 201.592 46.0396L201.395 46.0735V44.7935Z" fill="white"/>
<path d="M205.985 48.8048C205.985 51.8048 207.956 53.7061 210.952 53.1913C213.573 52.7409 214.677 51.0512 215.288 49.7862L213.987 49.3297C213.475 50.4978 212.627 51.5434 210.952 51.8313C209.02 52.1632 207.68 51.0736 207.542 49.0973L215.446 47.7391V46.9191C215.446 43.9391 213.534 42.4276 210.814 42.895C208.015 43.376 205.985 45.8648 205.985 48.8048ZM207.562 47.8139C207.778 45.9366 209 44.5666 210.814 44.255C212.588 43.9502 213.79 44.8036 213.889 46.7267L207.562 47.8139Z" fill="white"/>
<path d="M217.294 44.5816C217.294 46.3216 218.713 46.8577 220.526 46.8461L221.512 46.8168C222.911 46.8163 223.739 47.0741 223.739 48.0541C223.739 49.0741 222.813 49.9133 221.334 50.1673C219.856 50.4213 218.595 50.0181 218.279 48.0723L216.84 48.6595C217.195 51.0185 218.949 51.8171 221.334 51.4073C223.68 51.0042 225.217 49.62 225.217 47.72C225.217 45.8 223.719 45.4575 221.748 45.4562L220.763 45.4855C219.619 45.4819 218.792 45.2242 218.792 44.2842C218.792 43.3042 219.619 42.6219 220.94 42.395C222.241 42.1715 223.207 42.5655 223.483 43.9581L224.882 43.3376C224.488 41.6054 223.108 40.7824 220.94 41.155C218.713 41.5377 217.294 42.8416 217.294 44.5816Z" fill="white"/>
<path d="M226.793 45.2293C226.793 48.2293 228.764 50.1306 231.76 49.6158C234.382 49.1653 235.486 47.4757 236.097 46.2107L234.796 45.7542C234.283 46.9223 233.436 47.9679 231.76 48.2558C229.828 48.5877 228.488 47.498 228.35 45.5217L236.254 44.1636V43.3436C236.254 40.3636 234.342 38.8521 231.622 39.3195C228.823 39.8005 226.793 42.2893 226.793 45.2293ZM228.37 44.2384C228.587 42.3611 229.809 40.9911 231.622 40.6795C233.396 40.3747 234.599 41.2281 234.697 43.1511L228.37 44.2384Z" fill="white"/>
<path d="M238.415 38.4323V48.1923L239.933 47.9315V42.9915C239.933 40.5515 241.253 39.0646 243.106 38.7462C244.762 38.4617 245.807 39.1422 245.807 41.1022V46.9222L247.305 46.6648V40.7448C247.305 38.1248 245.61 36.996 243.5 37.3584C241.51 37.7005 240.544 38.7865 240.09 39.7844L239.893 39.8183V38.1783L238.415 38.4323Z" fill="white"/>
<path d="M248.646 37.9543L251.622 37.4428V44.2828C251.622 45.3028 252.234 45.8178 253.199 45.6519L255.86 45.1946V43.9146L253.672 44.2906C253.318 44.3515 253.121 44.1854 253.121 43.7854V37.1854L256.294 36.6401V35.3601L253.121 35.9054V32.4054L251.622 32.6628V36.1628L248.646 36.6743V37.9543Z" fill="white"/>
<path d="M66.7772 188.66C66.7772 172.7 55.8967 164.129 40.2855 166.812L3.85934 173.071V257.071L19.4706 254.388V223.188L33.0712 220.851L48.2094 249.45L65.8311 246.422L48.8007 216.948C59.563 211.979 66.7772 201.5 66.7772 188.66ZM19.4706 184.788L38.748 181.476C46.1988 180.196 51.166 184.022 51.166 191.342C51.166 198.662 46.1988 204.316 38.748 205.596L19.4706 208.908V184.788Z" fill="white"/>
<path d="M76.7366 160.548V244.548L131.849 235.078V220.678L92.3478 227.466V206.706L127.828 200.609V186.209L92.3478 192.306V172.266L131.139 165.6V151.2L76.7366 160.548Z" fill="white"/>
<path d="M158.549 146.49L135.368 234.473L151.334 231.73L156.301 212.156L185.159 207.198L190.126 225.064L206.092 222.321L182.911 142.304L158.549 146.49ZM160.086 197.106L170.139 157.459L171.321 157.256L181.374 193.448L160.086 197.106Z" fill="white"/>
<path d="M240.456 130.736C222.716 133.784 211.244 144.876 211.244 160.236C211.244 175.596 221.06 179.789 238.445 180.642L241.165 180.774C251.809 181.345 257.368 182.79 257.368 189.75C257.368 196.47 252.046 202.185 241.402 204.014C230.758 205.843 224.253 201.92 224.253 191.84V190.64L208.878 193.282V194.482C208.878 212.722 222.243 221.226 241.402 217.934C260.561 214.641 272.742 201.988 272.742 186.628C272.742 171.268 261.507 166.959 243.885 166.147L241.165 166.014C230.994 165.482 226.618 163.354 226.618 157.114C226.618 150.874 230.994 146.282 240.456 144.656C249.917 143.03 255.712 145.875 255.712 155.475V157.395L271.087 154.753V152.833C271.087 134.593 258.196 127.688 240.456 130.736Z" fill="white"/>
<path d="M279.121 157.692V177.852C279.121 199.452 292.367 209.176 313.182 205.599C333.997 202.023 347.243 187.747 347.243 166.147V145.987C347.243 124.387 333.997 114.663 313.182 118.239C292.367 121.816 279.121 136.092 279.121 157.692ZM294.733 154.53C294.733 143.01 301.592 134.391 313.182 132.399C324.772 130.408 331.632 136.669 331.632 148.189V169.309C331.632 180.829 324.772 189.448 313.182 191.439C301.592 193.431 294.733 187.17 294.733 175.65V154.53Z" fill="white"/>
<path d="M357.62 112.284V196.284L373.231 193.601V125.681L374.414 125.478L394.401 189.963L421.248 185.35V101.35L405.636 104.033V171.953L404.454 172.156L384.467 107.671L357.62 112.284Z" fill="white"/>
<path d="M301.656 232.015V233.455L309.461 232.113V230.793C309.461 225.333 313.068 222.254 317.326 221.522C321.584 220.79 324.363 222.773 324.363 226.913C324.363 231.833 320.815 234.422 314.901 237.059C307.273 240.469 301.892 245.114 301.892 252.734V259.934L331.932 254.772V247.572L309.698 251.393V250.673C309.698 246.773 312.773 244.984 318.568 242.489C327.26 238.775 332.168 234.092 332.168 225.812C332.168 217.172 325.25 213.08 317.208 214.462C308.811 215.905 301.656 222.175 301.656 232.015Z" fill="white"/>
<path d="M335.383 228.259V238.099C335.383 249.139 341.769 253.922 351.231 252.296C360.692 250.67 367.078 243.693 367.078 232.653V222.813C367.078 212.133 360.692 206.99 351.231 208.616C341.769 210.242 335.383 217.579 335.383 228.259ZM343.188 226.558C343.188 220.978 346.145 216.57 351.231 215.696C356.139 214.853 359.273 217.974 359.273 223.794V234.354C359.273 240.054 356.789 244.261 351.231 245.216C345.849 246.141 343.188 243.058 343.188 237.118V226.558Z" fill="white"/>
<path d="M370.491 220.187V221.627L378.296 220.285V218.965C378.296 213.505 381.903 210.425 386.161 209.694C390.418 208.962 393.198 210.945 393.198 215.085C393.198 220.005 389.65 222.594 383.736 225.23C376.108 228.641 370.727 233.286 370.727 240.906V248.106L400.767 242.944V235.744L378.533 239.565V238.845C378.533 234.945 381.608 233.156 387.403 230.661C396.095 226.947 401.003 222.264 401.003 213.984C401.003 205.344 394.085 201.252 386.043 202.634C377.646 204.077 370.491 210.347 370.491 220.187Z" fill="white"/>
<path d="M413.088 198.827L402.444 219.616L410.604 218.214L416.399 206.658L417.109 206.536V240.136L424.914 238.795V196.795L413.088 198.827Z" fill="white"/>
<path d="M41.1434 68.1899V82.1899L45.874 81.377C49.5797 80.7403 51.5508 78.4816 51.5508 74.7215V72.0816C51.5508 68.3216 49.5797 66.7402 45.874 67.377L41.1434 68.1899ZM43.7452 70.1428L45.9135 69.7702C48.0028 69.4112 48.949 70.4086 48.949 72.4486V75.2486C48.949 77.2886 48.0028 78.6112 45.9135 78.9702L43.7452 79.3428V70.1428Z" fill="#00B9FF"/>
<path d="M55.6943 69.7696L53.2502 70.1896V80.1096L55.7338 79.6828V73.9228C55.7338 72.5228 56.6405 71.687 57.902 71.4702L59.3606 71.2196V69.0996L58.3356 69.2757C57.0938 69.4891 56.266 70.0113 55.8914 71.1357L55.6943 71.1696V69.7696Z" fill="#00B9FF"/>
<path d="M60.4255 77.2566C60.4255 78.3766 61.2336 79.0177 62.298 78.8348C63.3624 78.6519 64.1706 77.7331 64.1706 76.6131C64.1706 75.4931 63.3624 74.8519 62.298 75.0348C61.2336 75.2177 60.4255 76.1366 60.4255 77.2566Z" fill="#00B9FF"/>
<path d="M70.9859 71.742C70.9859 75.342 73.2329 76.9559 76.7021 76.3598C80.1712 75.7637 82.1424 73.425 82.1424 70.105V68.065L76.229 69.0811V71.3211L79.5799 70.7453V70.8653C79.5799 72.4653 78.5944 73.6746 76.7021 73.9998C74.8098 74.3249 73.5877 73.2949 73.5877 71.3349V67.8949C73.5877 65.9349 74.8098 64.4849 76.7021 64.1598C78.5944 63.8346 79.4616 64.8056 79.4616 66.2456V66.5256L82.0635 66.0785V65.8385C82.0635 62.8785 80.1712 61.2037 76.7021 61.7998C73.2329 62.3959 70.9859 64.782 70.9859 68.382V71.742Z" fill="#00B9FF"/>
<path d="M83.2457 69.9954C83.2457 73.2354 85.4534 74.856 88.3706 74.3548C91.2879 73.8535 93.4955 71.4741 93.4955 68.2341C93.4955 64.9941 91.2879 63.3735 88.3706 63.8748C85.4534 64.376 83.2457 66.7554 83.2457 69.9954ZM85.7293 69.5686C85.7293 67.6486 86.8331 66.3389 88.3706 66.0748C89.9081 65.8106 91.0119 66.7409 91.0119 68.6609C91.0119 70.5809 89.9081 71.8906 88.3706 72.1548C86.8331 72.4189 85.7293 71.4886 85.7293 69.5686Z" fill="#00B9FF"/>
<path d="M95.117 76.9155L97.6006 76.4887V71.2087L97.7978 71.1749C98.3497 71.88 99.2958 72.4775 100.991 72.1862C103.317 71.7865 105.406 69.4275 105.406 66.1875C105.406 62.9475 103.317 61.3065 100.991 61.7062C99.2958 61.9975 98.3497 62.92 97.7583 63.8816L97.5612 63.9155V62.5755L95.117 62.9955V76.9155ZM100.242 70.1549C98.7045 70.4191 97.5612 69.4955 97.5612 67.5355C97.5612 65.5755 98.7045 64.2591 100.242 63.9949C101.779 63.7307 102.923 64.6543 102.923 66.6143C102.923 68.5743 101.779 69.8907 100.242 70.1549Z" fill="#00B9FF"/>
<path d="M106.895 63.4917L109.181 63.8788C109.359 62.9484 109.95 62.1667 111.192 61.9534C112.453 61.7366 113.005 62.3618 113.005 63.2818V63.8418L110.324 64.3024C108.117 64.6817 106.54 66.0127 106.54 68.0527C106.54 70.0927 108.117 70.9617 110.127 70.6163C111.941 70.3047 112.591 69.1929 112.769 68.7224L113.045 68.675V69.835L115.41 69.4286V63.0485C115.41 60.5685 113.794 59.5063 111.231 59.9466C108.688 60.3835 107.368 61.9104 106.895 63.4917ZM109.024 67.5659C109.024 66.8859 109.575 66.3111 110.502 66.1519L113.005 65.7218V65.8818C113.005 67.2018 112.02 68.2511 110.64 68.4882C109.575 68.6711 109.024 68.2659 109.024 67.5659Z" fill="#00B9FF"/>
<path d="M119.987 54.642L117.504 55.0688V69.0688L119.987 68.642V54.642Z" fill="#00B9FF"/>
<path d="M127.001 62.1169C127.001 65.7169 129.248 67.3308 132.717 66.7346C136.186 66.1385 138.157 63.7998 138.157 60.4798V58.4398L132.244 59.4559V61.6959L135.595 61.1201V61.2401C135.595 62.8401 134.609 64.0495 132.717 64.3746C130.825 64.6998 129.603 63.6698 129.603 61.7098V58.2698C129.603 56.3098 130.825 54.8598 132.717 54.5346C134.609 54.2095 135.477 55.1805 135.477 56.6205V56.9005L138.079 56.4534V56.2134C138.079 53.2534 136.186 51.5785 132.717 52.1746C129.248 52.7707 127.001 55.1569 127.001 58.7569V62.1169Z" fill="#00B9FF"/>
<path d="M149.353 63.5961V53.6761L146.869 54.1029V59.2229C146.869 61.0629 145.982 62.2953 144.464 62.5561C143.124 62.7864 142.375 62.1751 142.375 60.6751V54.8751L139.891 55.3019V61.2219C139.891 63.6819 141.409 65.1211 143.696 64.7282C145.489 64.4199 146.317 63.4777 146.712 62.57L146.909 62.5361V64.0161L149.353 63.5961Z" fill="#00B9FF"/>
<path d="M151.556 67.2176L154.039 66.7908V61.5108L154.236 61.477C154.788 62.1821 155.734 62.7796 157.429 62.4883C159.755 62.0886 161.845 59.7296 161.845 56.4896C161.845 53.2496 159.755 51.6086 157.429 52.0083C155.734 52.2996 154.788 53.2221 154.197 54.1837L154 54.2176V52.8776L151.556 53.2976V67.2176ZM156.68 60.457C155.143 60.7212 154 59.7976 154 57.8376C154 55.8776 155.143 54.5612 156.68 54.297C158.218 54.0328 159.361 54.9564 159.361 56.9164C159.361 58.8764 158.218 60.1928 156.68 60.457Z" fill="#00B9FF"/>
<path d="M162.33 53.4862L164.774 53.0662V58.7062C164.774 60.0662 165.642 60.7971 166.943 60.5736L169.702 60.0994V58.0594L167.81 58.3846C167.455 58.4455 167.258 58.2794 167.258 57.8794V52.6394L169.939 52.1788V50.1388L167.258 50.5994V47.5194L164.774 47.9462V51.0262L162.33 51.4462V53.4862Z" fill="#00B9FF"/>
<path d="M171.476 52.3947L173.762 52.7818C173.94 51.8513 174.531 51.0697 175.773 50.8563C177.034 50.6396 177.586 51.2647 177.586 52.1847V52.7447L174.905 53.2054C172.698 53.5847 171.121 54.9157 171.121 56.9557C171.121 58.9957 172.698 59.8647 174.708 59.5192C176.522 59.2076 177.172 58.0959 177.35 57.6254L177.625 57.578V58.738L179.991 58.3315V51.9515C179.991 49.4715 178.375 48.4093 175.812 48.8496C173.269 49.2865 171.949 50.8134 171.476 52.3947ZM173.604 56.4689C173.604 55.7889 174.156 55.2141 175.083 55.0549L177.586 54.6247V54.7847C177.586 56.1047 176.601 57.1541 175.221 57.3912C174.156 57.5741 173.604 57.1689 173.604 56.4689Z" fill="#00B9FF"/>
<path d="M43.9029 40.8683L40.0396 55.5321L42.7006 55.0749L43.5284 51.8126L48.3379 50.9862L49.1658 53.9639L51.8268 53.5067L47.9634 40.1706L43.9029 40.8683ZM44.1592 49.3042L45.8346 42.6964L46.0317 42.6625L47.7072 48.6946L44.1592 49.3042Z" fill="#00B9FF"/>
<path d="M55.4056 42.9718L52.9614 43.3917V53.3117L55.445 52.885V47.125C55.445 45.725 56.3517 44.8892 57.6132 44.6724L59.0719 44.4218V42.3018L58.0469 42.4779C56.8051 42.6913 55.9772 43.2135 55.6027 44.3379L55.4056 44.3718V42.9718Z" fill="#00B9FF"/>
<path d="M59.5976 44.2914L62.0418 43.8714V49.5114C62.0418 50.8714 62.9091 51.6024 64.21 51.3789L66.9696 50.9047V48.8647L65.0773 49.1899C64.7225 49.2508 64.5254 49.0847 64.5254 48.6847V43.4447L67.2061 42.9841V40.9441L64.5254 41.4047V38.3247L62.0418 38.7514V41.8314L59.5976 42.2514V44.2914Z" fill="#00B9FF"/>
<path d="M68.3487 37.8677C68.3487 38.8877 69.1175 39.4556 70.103 39.2863C71.0886 39.1169 71.8573 38.2848 71.8573 37.2648C71.8573 36.2448 71.0886 35.6769 70.103 35.8463C69.1175 36.0156 68.3487 36.8477 68.3487 37.8677ZM71.3448 40.2329L68.8612 40.6597V50.5797L71.3448 50.1529V40.2329Z" fill="#00B9FF"/>
<path d="M82.5266 33.7115C81.541 33.8809 80.7723 34.713 80.7723 35.733C80.7723 36.753 81.541 37.3209 82.5266 37.1515C83.5121 36.9822 84.2809 36.1501 84.2809 35.1301C84.2809 34.1101 83.5121 33.5422 82.5266 33.7115ZM77.7368 39.1346V37.7346C77.7368 37.3346 77.9339 37.1007 78.2887 37.0397L79.5108 36.8297V34.7497L77.2243 35.1426C76.081 35.3391 75.2532 36.3613 75.2532 37.5213V39.5613L72.7696 39.9881V42.1081L75.2532 41.6813V49.4813L77.7368 49.0546V41.2546L81.2848 40.6449V48.4449L83.7684 48.0181V38.0981L77.7368 39.1346Z" fill="#00B9FF"/>
<path d="M85.3824 42.7808C85.3824 45.8608 87.6294 47.6347 90.4678 47.147C93.2077 46.6762 94.8043 44.7818 95.3562 42.507L92.9514 42.3402C92.7346 43.6575 92.0053 44.6828 90.5073 44.9402C89.0092 45.1976 87.866 44.274 87.866 42.354C87.866 40.434 89.0092 39.1176 90.5073 38.8602C92.0053 38.6028 92.7346 39.4375 92.8726 40.6137L95.2774 39.6805C94.8437 37.535 93.188 36.1996 90.4678 36.667C87.6294 37.1547 85.3824 39.7008 85.3824 42.7808Z" fill="#00B9FF"/>
<path d="M96.3755 33.0518C96.3755 34.0718 97.1442 34.6397 98.1298 34.4704C99.1153 34.301 99.8841 33.469 99.8841 32.449C99.8841 31.429 99.1153 30.861 98.1298 31.0304C97.1442 31.1997 96.3755 32.0318 96.3755 33.0518ZM99.3716 35.417L96.888 35.8438V45.7638L99.3716 45.337V35.417Z" fill="#00B9FF"/>
<path d="M101.466 37.577L103.753 37.9642C103.93 37.0337 104.522 36.2521 105.764 36.0387C107.025 35.8219 107.577 36.4471 107.577 37.3671V37.9271L104.896 38.3877C102.689 38.7671 101.112 40.098 101.112 42.138C101.112 44.178 102.689 45.0471 104.699 44.7016C106.513 44.39 107.163 43.2782 107.34 42.8077L107.616 42.7603V43.9203L109.982 43.5139V37.1339C109.982 34.6539 108.365 33.5916 105.803 34.0319C103.26 34.4688 101.94 35.9958 101.466 37.577ZM103.595 41.6513C103.595 40.9713 104.147 40.3964 105.074 40.2372L107.577 39.8071V39.9671C107.577 41.2871 106.591 42.3364 105.212 42.5735C104.147 42.7564 103.595 42.3513 103.595 41.6513Z" fill="#00B9FF"/>
<path d="M114.559 28.7273L112.076 29.1541V43.1541L114.559 42.7273V28.7273Z" fill="#00B9FF"/>
<path d="M122.125 27.4273V41.4273L124.726 40.9803V26.9803L122.125 27.4273Z" fill="#00B9FF"/>
<path d="M126.974 30.674V40.594L129.458 40.1672V35.0472C129.458 33.2072 130.345 31.9748 131.863 31.714C133.203 31.4837 133.952 32.095 133.952 33.595V39.395L136.436 38.9682V33.0482C136.436 30.5882 134.918 29.149 132.631 29.5419C130.838 29.8501 130.01 30.7924 129.616 31.7001L129.419 31.734V30.254L126.974 30.674Z" fill="#00B9FF"/>
<path d="M137.306 30.9386L139.751 30.5186V36.1586C139.751 37.5186 140.618 38.2496 141.919 38.0261L144.678 37.5519V35.5119L142.786 35.837C142.431 35.898 142.234 35.7319 142.234 35.3319V30.0919L144.915 29.6312V27.5912L142.234 28.0519V24.9719L139.751 25.3986V28.4786L137.306 28.8986V30.9386Z" fill="#00B9FF"/>
<path d="M145.786 32.4015C145.786 35.5615 147.816 37.2927 150.734 36.7914C153.414 36.3308 154.577 34.5909 155.129 33.4361L153.099 32.705C152.764 33.5225 152.192 34.3808 150.813 34.6178C149.433 34.8549 148.388 34.0544 148.329 32.7046L155.445 31.4819V30.6219C155.445 27.5819 153.572 25.8237 150.694 26.3182C147.816 26.8127 145.786 29.2415 145.786 32.4015ZM148.349 30.8212C148.506 29.6941 149.334 28.7119 150.675 28.4816C151.956 28.2614 152.803 28.9158 152.922 30.0354L148.349 30.8212Z" fill="#00B9FF"/>
<path d="M159.467 21.0107L156.984 21.4374V35.4374L159.467 35.0107V21.0107Z" fill="#00B9FF"/>
<path d="M164.164 20.2036L161.681 20.6304V34.6304L164.164 34.2036V20.2036Z" fill="#00B9FF"/>
<path d="M165.865 21.1114C165.865 22.1314 166.634 22.6993 167.619 22.5299C168.605 22.3606 169.373 21.5285 169.373 20.5085C169.373 19.4885 168.605 18.9206 167.619 19.0899C166.634 19.2593 165.865 20.0914 165.865 21.1114ZM168.861 23.4766L166.377 23.9033V33.8233L168.861 33.3966V23.4766Z" fill="#00B9FF"/>
<path d="M178.328 21.8498V23.1898L178.131 23.2237C177.539 22.4653 176.593 21.8679 174.898 22.1592C172.572 22.5588 170.483 24.9179 170.483 27.9979C170.483 31.0779 172.572 32.7189 174.898 32.3192C176.593 32.0279 177.539 31.0853 178.091 30.2105L178.288 30.1766V31.1366C178.288 33.0566 177.185 34.1263 175.568 34.404C173.952 34.6818 173.124 33.944 172.789 32.8616L170.562 34.2243C171.074 35.6363 172.572 37.0389 175.608 36.5173C178.722 35.9821 180.772 33.9699 180.772 30.7699V21.4299L178.328 21.8498ZM175.647 30.0305C174.11 30.2947 172.966 29.3711 172.966 27.5711C172.966 25.7711 174.11 24.4547 175.647 24.1905C177.185 23.9263 178.328 24.8498 178.328 26.6498C178.328 28.4498 177.185 29.7663 175.647 30.0305Z" fill="#00B9FF"/>
<path d="M182.379 26.1138C182.379 29.2738 184.409 31.0049 187.326 30.5036C190.007 30.043 191.17 28.3032 191.722 27.1483L189.692 26.4172C189.357 27.2348 188.785 28.093 187.405 28.3301C186.025 28.5672 184.981 27.7667 184.922 26.4168L192.037 25.1941V24.3341C192.037 21.2941 190.165 19.5359 187.287 20.0304C184.409 20.5249 182.379 22.9538 182.379 26.1138ZM184.941 24.5335C185.099 23.4064 185.927 22.4241 187.267 22.1938C188.548 21.9736 189.396 22.628 189.514 23.7477L184.941 24.5335Z" fill="#00B9FF"/>
<path d="M193.576 19.2297V29.1497L196.06 28.7229V23.6029C196.06 21.7629 196.947 20.5305 198.465 20.2697C199.805 20.0394 200.554 20.6507 200.554 22.1507V27.9507L203.038 27.5239V21.6039C203.038 19.1439 201.52 17.7047 199.233 18.0976C197.44 18.4058 196.612 19.3481 196.218 20.2558L196.021 20.2897V18.8097L193.576 19.2297Z" fill="#00B9FF"/>
<path d="M204.535 22.3067C204.535 25.3867 206.782 27.1606 209.62 26.6729C212.36 26.2021 213.956 24.3077 214.508 22.0329L212.104 21.8661C211.887 23.1834 211.157 24.2087 209.659 24.4661C208.161 24.7235 207.018 23.8 207.018 21.88C207.018 19.96 208.161 18.6435 209.659 18.3861C211.157 18.1287 211.887 18.9634 212.025 20.1397L214.43 19.2064C213.996 17.061 212.34 15.7255 209.62 16.1929C206.782 16.6806 204.535 19.2267 204.535 22.3067Z" fill="#00B9FF"/>
<path d="M215.449 20.4313C215.449 23.5913 217.479 25.3224 220.396 24.8212C223.077 24.3605 224.24 22.6207 224.792 21.4659L222.762 20.7347C222.427 21.5523 221.855 22.4105 220.475 22.6476C219.095 22.8847 218.051 22.0842 217.992 20.7344L225.107 19.5117V18.6517C225.107 15.6117 223.235 13.8534 220.357 14.3479C217.479 14.8424 215.449 17.2713 215.449 20.4313ZM218.011 18.851C218.169 17.7239 218.997 16.7416 220.337 16.5113C221.618 16.2912 222.466 16.9455 222.584 18.0652L218.011 18.851Z" fill="#00B9FF"/>
<path d="M236.552 7.48513C233.595 7.99318 231.683 9.84172 231.683 12.4017C231.683 14.9617 233.319 15.6606 236.217 15.8027L236.67 15.8248C238.444 15.92 239.371 16.1608 239.371 17.3208C239.371 18.4408 238.484 19.3932 236.71 19.698C234.936 20.0029 233.851 19.3491 233.851 17.6691V17.4691L231.289 17.9095V18.1095C231.289 21.1495 233.516 22.5667 236.71 22.018C239.903 21.4693 241.933 19.3605 241.933 16.8005C241.933 14.2405 240.06 13.5222 237.124 13.3869L236.67 13.3648C234.975 13.2761 234.246 12.9214 234.246 11.8814C234.246 10.8414 234.975 10.0761 236.552 9.80513C238.129 9.53417 239.095 10.0082 239.095 11.6082V11.9282L241.657 11.4879V11.1679C241.657 8.1279 239.509 6.97708 236.552 7.48513Z" fill="#00B9FF"/>
<path d="M242.917 15.7113C242.917 18.9513 245.125 20.572 248.042 20.0707C250.959 19.5695 253.167 17.1901 253.167 13.9501C253.167 10.7101 250.959 9.08945 248.042 9.59072C245.125 10.092 242.917 12.4713 242.917 15.7113ZM245.401 15.2846C245.401 13.3646 246.505 12.0549 248.042 11.7907C249.58 11.5265 250.684 12.4569 250.684 14.3769C250.684 16.2969 249.58 17.6065 248.042 17.8707C246.505 18.1349 245.401 17.2046 245.401 15.2846Z" fill="#00B9FF"/>
<path d="M254.197 13.7731C254.197 16.8531 256.444 18.627 259.283 18.1392C262.023 17.6685 263.619 15.7741 264.171 13.4993L261.766 13.3325C261.55 14.6497 260.82 15.6751 259.322 15.9325C257.824 16.1899 256.681 15.2663 256.681 13.3463C256.681 11.4263 257.824 10.1099 259.322 9.85247C260.82 9.59506 261.55 10.4297 261.688 11.606L264.092 10.6728C263.659 8.52733 262.003 7.19184 259.283 7.65924C256.444 8.14697 254.197 10.6931 254.197 13.7731Z" fill="#00B9FF"/>
<path d="M265.19 4.04412C265.19 5.06412 265.959 5.63203 266.945 5.46268C267.93 5.29333 268.699 4.46124 268.699 3.44124C268.699 2.42124 267.93 1.85333 266.945 2.02268C265.959 2.19203 265.19 3.02412 265.19 4.04412ZM268.187 6.4093L265.703 6.83606V16.7561L268.187 16.3293V6.4093Z" fill="#00B9FF"/>
<path d="M269.808 11.0906C269.808 14.2506 271.839 15.9818 274.756 15.4805C277.437 15.0199 278.6 13.28 279.151 12.1252L277.121 11.394C276.786 12.2116 276.215 13.0698 274.835 13.3069C273.455 13.544 272.41 12.7435 272.351 11.3937L279.467 10.171V9.31099C279.467 6.27099 277.594 4.51275 274.716 5.00725C271.839 5.50175 269.808 7.93062 269.808 11.0906ZM272.371 9.51031C272.529 8.38321 273.356 7.40096 274.697 7.17064C275.978 6.95049 276.826 7.60485 276.944 8.72452L272.371 9.51031Z" fill="#00B9FF"/>
<path d="M279.885 6.43918L282.329 6.01919V11.6592C282.329 13.0192 283.196 13.7502 284.497 13.5266L287.257 13.0524V11.0124L285.364 11.3376C285.01 11.3986 284.813 11.2324 284.813 10.8324V5.59243L287.493 5.1318V3.0918L284.813 3.55243V0.472427L282.329 0.899188V3.97919L279.885 4.39918V6.43918Z" fill="#00B9FF"/>
<path d="M296.126 1.6084L293.544 9.2121L293.347 9.24597L290.765 2.52966L288.084 2.99029L292.144 12.8526L290.765 16.4497L293.445 15.989L298.807 1.14777L296.126 1.6084Z" fill="#00B9FF"/>
</svg>
