<svg width="422" height="177" viewBox="0 0 422 177" fill="none" xmlns="http://www.w3.org/2000/svg">
<path d="M0.958022 30.0541V79.0541L10.0646 77.4893V57.1193L28.2776 53.9897V74.3597L37.3842 72.795V23.795L28.2776 25.3597V45.5898L10.0646 48.7193V28.4893L0.958022 30.0541Z" fill="white"/>
<path d="M55.0146 20.7655L41.4928 72.089L50.8063 70.4886L53.7038 59.0707L70.5371 56.1782L73.4347 66.6004L82.7482 65L69.2263 18.3235L55.0146 20.7655ZM55.9115 50.2914L61.7755 27.1638L62.4654 27.0452L68.3295 48.1576L55.9115 50.2914Z" fill="white"/>
<path d="M83.915 46.1795C83.915 58.7795 91.6418 64.4518 103.784 62.3654C115.926 60.279 122.963 52.0699 122.963 41.4299V39.6099L113.856 41.1747V43.1347C113.856 48.0347 110.407 52.9674 103.784 54.1054C97.1609 55.2434 93.0216 51.6147 93.0216 44.7547V32.7147C93.0216 25.8547 97.1609 20.8034 103.784 19.6654C110.407 18.5274 113.856 22.2747 113.856 27.1747V28.5747L122.963 27.0099V25.7499C122.963 15.1099 115.926 9.31902 103.784 11.4054C91.6418 13.4918 83.915 21.8195 83.915 34.4195V46.1795Z" fill="white"/>
<path d="M170.777 0.873886L157.945 3.07882L138.559 26.0099L137.869 26.1285V6.52847L128.763 8.09326V57.0933L137.869 55.5285V38.1685L143.112 32.2275L158.497 51.984L169.742 50.0517L149.459 25.0469L170.777 0.873886Z" fill="white"/>
<path d="M63.7774 105.66C63.7774 89.6998 52.8968 81.1294 37.2856 83.8119L0.859467 90.0711V174.071L16.4707 171.389V140.189L30.0713 137.852L45.2095 166.45L62.8312 163.422L45.8008 133.949C56.5631 128.979 63.7774 118.5 63.7774 105.66ZM16.4707 101.789L35.7482 98.4761C43.199 97.1958 48.1662 101.022 48.1662 108.342C48.1662 115.662 43.199 121.316 35.7482 122.596L16.4707 125.909V101.789Z" fill="white"/>
<path d="M73.7367 77.5484V161.548L128.849 152.078V137.678L89.3479 144.466V123.706L124.828 117.609V103.209L89.3479 109.306V89.266L128.139 82.6004V68.2004L73.7367 77.5484Z" fill="white"/>
<path d="M155.549 63.4906L132.368 151.474L148.334 148.73L153.302 129.157L182.159 124.198L187.126 142.065L203.092 139.321L179.912 59.3043L155.549 63.4906ZM157.086 114.106L167.139 74.459L168.321 74.2558L178.374 110.448L157.086 114.106Z" fill="white"/>
<path d="M237.456 47.7364C219.716 50.7847 208.244 61.8759 208.244 77.2359C208.244 92.5959 218.06 96.7892 235.445 97.6418L238.165 97.7744C248.809 98.3455 254.368 99.7903 254.368 106.75C254.368 113.47 249.046 119.185 238.402 121.014C227.758 122.843 221.253 118.92 221.253 108.84V107.64L205.879 110.282V111.482C205.879 129.722 219.243 138.226 238.402 134.934C257.561 131.642 269.743 118.988 269.743 103.628C269.743 88.2685 258.507 83.9591 240.885 83.147L238.165 83.0144C227.994 82.4821 223.619 80.354 223.619 74.114C223.619 67.874 227.994 63.2821 237.456 61.6564C246.917 60.0306 252.712 62.8748 252.712 72.4748V74.3948L268.087 71.753V69.833C268.087 51.593 255.196 44.6881 237.456 47.7364Z" fill="white"/>
<path d="M276.122 74.6924V94.8524C276.122 116.452 289.367 126.176 310.182 122.6C330.997 119.023 344.243 104.747 344.243 83.1469V62.9869C344.243 41.3869 330.997 31.663 310.182 35.2396C289.367 38.8163 276.122 53.0924 276.122 74.6924ZM291.733 71.5299C291.733 60.0099 298.592 51.3912 310.182 49.3997C321.773 47.4081 328.632 53.6694 328.632 65.1894V86.3094C328.632 97.8294 321.773 106.448 310.182 108.44C298.592 110.431 291.733 104.17 291.733 92.6499V71.5299Z" fill="white"/>
<path d="M354.62 29.2838V113.284L370.231 110.601V42.6813L371.414 42.4781L391.401 106.964L418.248 102.351V18.3506L402.637 21.0331V88.9531L401.454 89.1564L381.467 24.6708L354.62 29.2838Z" fill="white"/>
<path d="M298.656 149.015V150.455L306.461 149.114V147.794C306.461 142.334 310.068 139.254 314.326 138.522C318.584 137.791 321.363 139.773 321.363 143.913C321.363 148.833 317.815 151.423 311.902 154.059C304.273 157.47 298.892 162.114 298.892 169.734V176.934L328.932 171.773V164.573L306.698 168.393V167.673C306.698 163.773 309.773 161.985 315.568 159.489C324.26 155.775 329.169 151.092 329.169 142.812C329.169 134.172 322.25 130.081 314.208 131.463C305.811 132.905 298.656 139.175 298.656 149.015Z" fill="white"/>
<path d="M332.383 145.26V155.1C332.383 166.14 338.769 170.922 348.231 169.296C357.692 167.671 364.078 160.693 364.078 149.653V139.813C364.078 129.133 357.692 123.991 348.231 125.616C338.769 127.242 332.383 134.58 332.383 145.26ZM340.189 143.558C340.189 137.978 343.145 133.57 348.231 132.696C353.139 131.853 356.273 134.974 356.273 140.794V151.354C356.273 157.054 353.789 161.261 348.231 162.216C342.85 163.141 340.189 160.058 340.189 154.118V143.558Z" fill="white"/>
<path d="M367.491 137.187V138.627L375.296 137.286V135.966C375.296 130.506 378.903 127.426 383.161 126.694C387.419 125.963 390.198 127.945 390.198 132.085C390.198 137.005 386.65 139.595 380.736 142.231C373.108 145.642 367.727 150.286 367.727 157.906V165.106L397.767 159.945V152.744L375.533 156.565V155.845C375.533 151.945 378.608 150.157 384.403 147.661C393.095 143.947 398.003 139.264 398.003 130.984C398.003 122.344 391.085 118.253 383.043 119.635C374.646 121.077 367.491 127.347 367.491 137.187Z" fill="white"/>
<path d="M410.088 115.827L399.444 136.616L407.604 135.214L413.399 123.658L414.109 123.536V157.136L421.915 155.795V113.795L410.088 115.827Z" fill="white"/>
</svg>
