<svg width="432" height="297" viewBox="0 0 432 297" fill="none" xmlns="http://www.w3.org/2000/svg">
<path d="M6.95814 145.054V194.054L16.0647 192.489V172.119L34.2778 168.99V189.36L43.3843 187.795V138.795L34.2778 140.36V160.59L16.0647 163.719V143.489L6.95814 145.054ZM61.0147 135.765L47.4929 187.089L56.8064 185.489L59.704 174.071L76.5372 171.178L79.4348 181.6L88.7483 180L75.2265 133.323L61.0147 135.765ZM61.9116 165.291L67.7757 142.164L68.4655 142.045L74.3296 163.157L61.9116 165.291ZM89.9152 161.179C89.9152 173.779 97.6419 179.452 109.784 177.365C121.926 175.279 128.963 167.07 128.963 156.43V154.61L119.856 156.175V158.135C119.856 163.035 116.407 167.967 109.784 169.105C103.161 170.243 99.0217 166.615 99.0217 159.755V147.715C99.0217 140.855 103.161 135.803 109.784 134.665C116.407 133.527 119.856 137.275 119.856 142.175V143.575L128.963 142.01V140.75C128.963 130.11 121.926 124.319 109.784 126.405C97.6419 128.492 89.9152 136.819 89.9152 149.419V161.179ZM176.777 115.874L163.945 118.079L144.559 141.01L143.869 141.128V121.528L134.763 123.093V172.093L143.869 170.528V153.168L149.113 147.227L164.497 166.984L175.742 165.052L155.46 140.047L176.777 115.874Z" fill="white"/>
<path d="M3.33509 80.1021V81.5621L7.94749 80.7695V93.3095L9.54409 93.0352V80.4952L14.1368 79.706V78.246L3.33509 80.1021ZM15.9114 77.9411V91.9411L17.4292 91.6803V86.7403C17.4292 84.3003 18.7498 82.8133 20.6026 82.495C22.2584 82.2105 23.3031 82.8909 23.3031 84.8509V90.6709L24.8011 90.4135V84.4935C24.8011 81.8735 23.106 80.7448 20.9969 81.1072C19.006 81.4493 18.0993 82.5051 17.6263 83.4464L17.4292 83.4803V77.6803L15.9114 77.9411ZM26.9264 85.0883C26.9264 88.0883 28.8975 89.9897 31.8936 89.4748C34.5152 89.0244 35.619 87.3347 36.23 86.0697L34.9291 85.6132C34.4166 86.7813 33.569 87.8269 31.8936 88.1148C29.9619 88.4468 28.6215 87.3571 28.4836 85.3808L36.3877 84.0226V83.2026C36.3877 80.2226 34.4757 78.7111 31.7556 79.1785C28.9566 79.6595 26.9264 82.1483 26.9264 85.0883ZM28.5033 84.0974C28.7201 82.2201 29.9422 80.8501 31.7556 80.5385C33.5296 80.2337 34.732 81.0871 34.8305 83.0102L28.5033 84.0974ZM4.14325 113.903L5.56245 114.099C5.85811 112.809 6.74511 111.776 8.322 111.505C9.9186 111.231 10.7268 111.972 10.7268 113.372V114.092L7.435 114.658C5.38505 115.01 3.84758 116.254 3.84758 118.234C3.84758 120.194 5.38505 121.03 7.39558 120.684C9.28785 120.359 10.1157 119.317 10.5494 118.462L10.7662 118.425V119.825L12.2248 119.575V113.195C12.2248 110.895 10.7662 109.785 8.322 110.205C5.89753 110.622 4.5966 112.185 4.14325 113.903ZM5.34562 117.957C5.34562 116.857 6.25234 116.121 7.49414 115.907L10.7268 115.352V115.592C10.7268 117.612 9.46525 119.049 7.6124 119.367C6.25234 119.601 5.34562 119.057 5.34562 117.957ZM14.9874 109.34V119.1L16.5052 118.839V113.899C16.5052 111.459 17.8258 109.972 19.6787 109.654C21.3344 109.369 22.3791 110.05 22.3791 112.01V117.83L23.8772 117.572V111.652C23.8772 109.032 22.182 107.904 20.0729 108.266C18.0821 108.608 17.1162 109.694 16.6629 110.692L16.4658 110.726V109.086L14.9874 109.34ZM35.8777 101.51L34.3599 101.771V107.631L34.1628 107.665C33.6109 106.82 32.5662 106.039 30.5557 106.385C28.0327 106.818 26.0221 109.164 26.0221 112.324C26.0221 115.464 28.0327 117.138 30.5557 116.705C32.5662 116.359 33.6109 115.22 34.2022 114.098L34.3994 114.064V115.764L35.8777 115.51V101.51ZM30.9302 107.66C32.9407 107.315 34.3796 108.548 34.3796 110.888C34.3796 113.228 32.9407 114.935 30.9302 115.28C28.9394 115.622 27.5596 114.42 27.5596 112.06C27.5596 109.7 28.9394 108.002 30.9302 107.66ZM188.091 78.5352C188.091 77.7952 187.539 77.3301 186.77 77.4622L186.534 77.5028V77.3028C186.534 76.6828 186.79 76.3388 187.44 76.227L187.854 76.1559V75.1559L187.46 75.2236C186.1 75.4573 185.41 76.3559 185.41 77.6959V78.9759C185.41 79.7959 185.962 80.261 186.75 80.1255C187.539 79.9901 188.091 79.3352 188.091 78.5352ZM189.514 81.8706C189.514 83.6106 190.934 84.1468 192.747 84.1352L193.733 84.1058C195.132 84.1053 195.96 84.3631 195.96 85.3431C195.96 86.3631 195.033 87.2023 193.555 87.4563C192.077 87.7103 190.815 87.3071 190.5 85.3613L189.061 85.9485C189.416 88.3076 191.17 89.1061 193.555 88.6963C195.901 88.2932 197.438 86.9091 197.438 85.0091C197.438 83.0891 195.94 82.7465 193.969 82.7452L192.983 82.7745C191.84 82.771 191.012 82.5132 191.012 81.5732C191.012 80.5932 191.84 79.911 193.161 79.684C194.462 79.4605 195.428 79.8545 195.704 81.2471L197.103 80.6266C196.709 78.8944 195.329 78.0715 193.161 78.444C190.934 78.8268 189.514 80.1306 189.514 81.8706ZM207.206 76.3107L205.727 76.5647V86.3248L207.245 86.064V80.064C207.245 78.384 208.152 77.4482 209.571 77.2043L211.128 76.9367V75.5967L209.807 75.8236C208.526 76.0438 207.777 76.5525 207.403 77.5569L207.206 77.5907V76.3107ZM211.795 80.3221C211.795 83.3221 213.766 85.2234 216.762 84.7086C219.384 84.2581 220.488 82.5684 221.099 81.3034L219.798 80.847C219.285 82.015 218.438 83.0607 216.762 83.3486C214.831 83.6805 213.49 82.5908 213.352 80.6145L221.256 79.2563V78.4363C221.256 75.4563 219.344 73.9449 216.624 74.4123C213.825 74.8932 211.795 77.3821 211.795 80.3221ZM213.372 79.3311C213.589 77.4539 214.811 76.0839 216.624 75.7723C218.398 75.4674 219.601 76.3208 219.699 78.2439L213.372 79.3311ZM223.104 76.0989C223.104 77.8389 224.523 78.375 226.337 78.3634L227.322 78.334C228.722 78.3336 229.55 78.5913 229.55 79.5713C229.55 80.5913 228.623 81.4305 227.145 81.6845C225.667 81.9385 224.405 81.5353 224.09 79.5895L222.651 80.1768C223.006 82.5358 224.76 83.3343 227.145 82.9245C229.49 82.5215 231.028 81.1373 231.028 79.2373C231.028 77.3173 229.53 76.9747 227.559 76.9734L226.573 77.0027C225.43 76.9992 224.602 76.7414 224.602 75.8014C224.602 74.8214 225.43 74.1392 226.751 73.9123C228.052 73.6887 229.017 74.0828 229.293 75.4753L230.693 74.8549C230.299 73.1226 228.919 72.2997 226.751 72.6723C224.523 73.055 223.104 74.3589 223.104 76.0989ZM232.603 76.7466C232.603 79.7466 234.575 81.6479 237.571 81.133C240.192 80.6826 241.296 78.9929 241.907 77.7279L240.606 77.2714C240.094 78.4395 239.246 79.4851 237.571 79.773C235.639 80.105 234.299 79.0153 234.161 77.039L242.065 75.6808V74.8608C242.065 71.8808 240.153 70.3693 237.433 70.8367C234.634 71.3177 232.603 73.8066 232.603 76.7466ZM234.18 75.7556C234.397 73.8783 235.619 72.5084 237.433 72.1967C239.207 71.8919 240.409 72.7453 240.508 74.6684L234.18 75.7556ZM243.872 72.7103L245.291 72.9064C245.587 71.6156 246.474 70.5832 248.051 70.3122C249.647 70.0379 250.456 70.779 250.456 72.179V72.899L247.164 73.4646C245.114 73.8169 243.576 75.0611 243.576 77.0411C243.576 79.0011 245.114 79.8369 247.124 79.4914C249.017 79.1663 249.845 78.124 250.278 77.2695L250.495 77.2322V78.6322L251.954 78.3816V72.0016C251.954 69.7016 250.495 68.5922 248.051 69.0122C245.626 69.4288 244.325 70.9924 243.872 72.7103ZM245.074 76.7637C245.074 75.6637 245.981 74.9279 247.223 74.7145L250.456 74.159V74.399C250.456 76.419 249.194 77.8558 247.341 78.1742C245.981 78.4079 245.074 77.8637 245.074 76.7637ZM256.195 67.8929L254.716 68.1469V77.9069L256.234 77.6461V71.6461C256.234 69.9661 257.141 69.0303 258.56 68.7864L260.117 68.5189V67.1789L258.796 67.4058C257.515 67.6259 256.766 68.1346 256.392 69.139L256.195 69.1729V67.8929ZM260.804 71.9808C260.804 75.0008 262.992 76.7649 265.791 76.2839C268.412 75.8335 269.97 73.9259 270.403 71.7714L268.925 71.6854C268.669 73.2894 267.663 74.6022 265.811 74.9205C263.839 75.2592 262.341 73.9567 262.341 71.7167C262.341 69.4767 263.82 67.6626 265.791 67.3239C267.545 67.0225 268.669 67.9294 268.866 69.4756L270.344 68.9015C270.009 66.8991 268.353 65.5236 265.771 65.9673C262.992 66.4449 260.804 68.9408 260.804 71.9808ZM272.599 60.8341V74.8341L274.116 74.5733V69.6333C274.116 67.1933 275.437 65.7064 277.29 65.388C278.946 65.1035 279.99 65.784 279.99 67.744V73.564L281.488 73.3066V67.3866C281.488 64.7666 279.793 63.6379 277.684 64.0003C275.693 64.3424 274.787 65.3982 274.314 66.3395L274.116 66.3733V60.5733L272.599 60.8341ZM298.093 60.6933V62.3733L297.896 62.4072C297.305 61.5088 296.241 60.7317 294.25 61.0738C291.727 61.5073 289.716 63.8328 289.716 66.8928C289.716 69.9728 291.727 71.6073 294.25 71.1738C296.241 70.8317 297.305 69.6688 297.857 68.654L298.054 68.6201V69.8801C298.054 72.2001 296.714 73.6304 294.683 73.9793C292.653 74.3282 291.668 73.2975 291.313 72.1785L289.933 72.9556C290.386 74.2977 291.825 75.8104 294.703 75.3159C297.62 74.8146 299.572 72.7193 299.572 69.6993V60.4393L298.093 60.6933ZM294.624 69.7495C292.633 70.0915 291.254 68.9286 291.254 66.6286C291.254 64.3486 292.633 62.6915 294.624 62.3495C296.635 62.004 298.074 63.2167 298.074 65.4567C298.074 67.7167 296.635 69.404 294.624 69.7495ZM303.913 59.6933L302.435 59.9473V69.7073L303.953 69.4465V63.4465C303.953 61.7665 304.859 60.8307 306.279 60.5869L307.836 60.3193V58.9793L306.515 59.2062C305.234 59.4264 304.485 59.9351 304.11 60.9394L303.913 60.9733V59.6933ZM308.523 63.7813C308.523 66.8413 310.513 68.5992 313.431 68.0979C316.348 67.5966 318.358 65.1512 318.358 62.0912C318.358 59.0112 316.348 57.2766 313.431 57.7779C310.513 58.2792 308.523 60.7013 308.523 63.7813ZM310.021 63.5239C310.021 61.3039 311.381 59.4902 313.431 59.1379C315.481 58.7857 316.841 60.072 316.841 62.352C316.841 64.612 315.481 66.3857 313.431 66.7379C311.381 67.0902 310.021 65.8439 310.021 63.5239ZM329.437 65.0676V55.3076L327.939 55.565V60.505C327.939 62.945 326.598 64.4353 324.765 64.7503C323.09 65.0382 322.045 64.3577 322.045 62.3977V56.5777L320.547 56.8351V62.7551C320.547 65.3751 322.242 66.4838 324.351 66.1214C326.342 65.7793 327.308 64.7134 327.781 63.7121L327.978 63.6782V65.3182L329.437 65.0676ZM332.31 68.5739L333.827 68.3131V62.6731L334.024 62.6393C334.576 63.5044 335.621 64.2849 337.612 63.9428C340.135 63.5093 342.165 61.1404 342.165 58.0004C342.165 54.8404 340.135 53.1893 337.612 53.6228C335.621 53.9649 334.576 55.1044 333.985 56.206L333.788 56.2399V54.5599L332.31 54.8139V68.5739ZM337.237 62.6472C335.247 62.9893 333.808 61.7765 333.808 59.4365C333.808 57.0965 335.247 55.3693 337.237 55.0272C339.248 54.6817 340.628 55.9046 340.628 58.2646C340.628 60.6246 339.248 62.3017 337.237 62.6472ZM350.5 65.4482L352.018 65.1874V59.5474L352.215 59.5136C352.767 60.3787 353.811 61.1592 355.802 60.8171C358.325 60.3836 360.356 58.0147 360.356 54.8747C360.356 51.7147 358.325 50.0636 355.802 50.4971C353.811 50.8392 352.767 51.9787 352.175 53.0803L351.978 53.1142V51.4342L350.5 51.6882V65.4482ZM355.428 59.5215C353.437 59.8636 351.998 58.6508 351.998 56.3108C351.998 53.9708 353.437 52.2436 355.428 51.9015C357.438 51.556 358.818 52.7789 358.818 55.1389C358.818 57.4989 357.438 59.176 355.428 59.5215ZM364.086 49.3537L362.608 49.6077V59.3677L364.125 59.107V53.107C364.125 51.427 365.032 50.4911 366.451 50.2473L368.009 49.9797V48.6397L366.688 48.8666C365.407 49.0868 364.658 49.5955 364.283 50.5999L364.086 50.6337V49.3537ZM368.676 53.3651C368.676 56.3651 370.647 58.2664 373.643 57.7516C376.264 57.3011 377.368 55.6114 377.979 54.3464L376.678 53.89C376.166 55.058 375.318 56.1037 373.643 56.3916C371.711 56.7235 370.371 55.6338 370.233 53.6575L378.137 52.2993V51.4793C378.137 48.4993 376.225 46.9879 373.505 47.4553C370.706 47.9362 368.676 50.4251 368.676 53.3651ZM370.253 52.3741C370.469 50.4969 371.691 49.1269 373.505 48.8153C375.279 48.5104 376.481 49.3638 376.58 51.2869L370.253 52.3741ZM379.985 49.1419C379.985 50.8819 381.404 51.418 383.217 51.4064L384.203 51.377C385.602 51.3766 386.43 51.6343 386.43 52.6143C386.43 53.6343 385.504 54.4735 384.025 54.7275C382.547 54.9815 381.286 54.5783 380.97 52.6325L379.531 53.2198C379.886 55.5788 381.64 56.3773 384.025 55.9675C386.371 55.5645 387.908 54.1803 387.908 52.2803C387.908 50.3603 386.41 50.0177 384.439 50.0164L383.454 50.0457C382.311 50.0422 381.483 49.7844 381.483 48.8444C381.483 47.8644 382.311 47.1822 383.631 46.9553C384.932 46.7317 385.898 47.1258 386.174 48.5183L387.573 47.8979C387.179 46.1656 385.799 45.3427 383.631 45.7153C381.404 46.098 379.985 47.4019 379.985 49.1419ZM389.484 49.7896C389.484 52.7896 391.455 54.6909 394.451 54.176C397.073 53.7256 398.177 52.0359 398.788 50.7709L397.487 50.3144C396.974 51.4825 396.127 52.5281 394.451 52.816C392.519 53.148 391.179 52.0583 391.041 50.082L398.945 48.7238V47.9038C398.945 44.9238 397.033 43.4123 394.313 43.8797C391.514 44.3607 389.484 46.8496 389.484 49.7896ZM391.061 48.7986C391.278 46.9213 392.5 45.5514 394.313 45.2397C396.087 44.9349 397.29 45.7883 397.388 47.7114L391.061 48.7986ZM401.106 42.9925V52.7525L402.624 52.4917V47.5517C402.624 45.1117 403.944 43.6248 405.797 43.3064C407.453 43.0219 408.498 43.7024 408.498 45.6624V51.4824L409.996 51.225V45.305C409.996 42.685 408.301 41.5563 406.191 41.9187C404.201 42.2608 403.235 43.3467 402.781 44.3446L402.584 44.3785V42.7385L401.106 42.9925ZM411.337 42.5145L414.314 42.0031V48.8431C414.314 49.8631 414.925 50.3781 415.89 50.2121L418.551 49.7549V48.4749L416.363 48.8508C416.009 48.9118 415.812 48.7457 415.812 48.3457V41.7457L418.985 41.2003V39.9203L415.812 40.4657V36.9657L414.314 37.2231V40.7231L411.337 41.2345V42.5145Z" fill="white"/>
<path d="M47.095 72.5827L43.2316 87.2466L45.8926 86.7894L46.7205 83.5271L51.53 82.7007L52.3579 85.6784L55.0189 85.2212L51.1555 71.885L47.095 72.5827ZM47.3513 81.0187L49.0267 74.4108L49.2238 74.3769L50.8993 80.4091L47.3513 81.0187ZM58.5977 74.6862L56.1535 75.1062V85.0262L58.6371 84.5994V78.8394C58.6371 77.4394 59.5438 76.6036 60.8053 76.3869L62.264 76.1362V74.0162L61.239 74.1924C59.9972 74.4057 59.1693 74.928 58.7948 76.0524L58.5977 76.0862V74.6862ZM62.7897 76.0059L65.2339 75.5859V81.2259C65.2339 82.5859 66.1012 83.3169 67.4021 83.0934L70.1616 82.6192V80.5792L68.2694 80.9043C67.9146 80.9653 67.7175 80.7992 67.7175 80.3992V75.1592L70.3982 74.6985V72.6585L67.7175 73.1192V70.0392L65.2339 70.4659V73.5459L62.7897 73.9659V76.0059ZM71.5408 69.5822C71.5408 70.6022 72.3095 71.1701 73.2951 71.0007C74.2807 70.8314 75.0494 69.9993 75.0494 68.9793C75.0494 67.9593 74.2807 67.3914 73.2951 67.5607C72.3095 67.7301 71.5408 68.5622 71.5408 69.5822ZM74.5369 71.9474L72.0533 72.3741V82.2941L74.5369 81.8674V71.9474ZM85.7186 65.426C84.7331 65.5953 83.9644 66.4274 83.9644 67.4474C83.9644 68.4674 84.7331 69.0353 85.7186 68.866C86.7042 68.6966 87.4729 67.8645 87.4729 66.8445C87.4729 65.8245 86.7042 65.2566 85.7186 65.426ZM80.9288 70.849V69.449C80.9288 69.049 81.126 68.8152 81.4808 68.7542L82.7028 68.5442V66.4642L80.4164 66.8571C79.2731 67.0535 78.4452 68.0758 78.4452 69.2358V71.2758L75.9616 71.7025V73.8225L78.4452 73.3958V81.1958L80.9288 80.769V72.969L84.4768 72.3594V80.1594L86.9604 79.7326V69.8126L80.9288 70.849ZM88.5744 74.4953C88.5744 77.5753 90.8215 79.3492 93.6599 78.8614C96.3998 78.3906 97.9964 76.4963 98.5483 74.2215L96.1435 74.0547C95.9267 75.3719 95.1974 76.3972 93.6993 76.6547C92.2013 76.9121 91.058 75.9885 91.058 74.0685C91.058 72.1485 92.2013 70.8321 93.6993 70.5747C95.1974 70.3172 95.9267 71.1519 96.0647 72.3282L98.4694 71.395C98.0358 69.2495 96.3801 67.914 93.6599 68.3814C90.8215 68.8692 88.5744 71.4153 88.5744 74.4953ZM99.5676 64.7663C99.5676 65.7863 100.336 66.3542 101.322 66.1849C102.307 66.0155 103.076 65.1834 103.076 64.1634C103.076 63.1434 102.307 62.5755 101.322 62.7449C100.336 62.9142 99.5676 63.7463 99.5676 64.7663ZM102.564 67.1315L100.08 67.5582V77.4783L102.564 77.0515V67.1315ZM104.659 69.2915L106.945 69.6786C107.122 68.7481 107.714 67.9665 108.956 67.7532C110.217 67.5364 110.769 68.1615 110.769 69.0815V69.6415L108.088 70.1022C105.881 70.4815 104.304 71.8125 104.304 73.8525C104.304 75.8925 105.881 76.7615 107.891 76.416C109.705 76.1044 110.355 74.9927 110.532 74.5222L110.808 74.4748V75.6348L113.174 75.2283V68.8483C113.174 66.3683 111.557 65.3061 108.995 65.7464C106.452 66.1833 105.132 67.7102 104.659 69.2915ZM106.787 73.3657C106.787 72.6857 107.339 72.1109 108.266 71.9517L110.769 71.5215V71.6815C110.769 73.0015 109.783 74.0509 108.404 74.288C107.339 74.4709 106.787 74.0657 106.787 73.3657ZM117.751 60.4418L115.268 60.8685V74.8685L117.751 74.4418V60.4418ZM125.317 59.1418V73.1418L127.918 72.6947V58.6947L125.317 59.1418ZM130.166 62.3885V72.3085L132.65 71.8817V66.7617C132.65 64.9217 133.537 63.6893 135.055 63.4285C136.395 63.1982 137.144 63.8095 137.144 65.3095V71.1095L139.628 70.6827V64.7627C139.628 62.3027 138.11 60.8635 135.824 61.2564C134.03 61.5646 133.202 62.5069 132.808 63.4146L132.611 63.4485V61.9685L130.166 62.3885ZM140.498 62.6531L142.943 62.2331V67.8731C142.943 69.2331 143.81 69.9641 145.111 69.7405L147.87 69.2664V67.2264L145.978 67.5515C145.623 67.6125 145.426 67.4463 145.426 67.0463V61.8063L148.107 61.3457V59.3057L145.426 59.7663V56.6863L142.943 57.1131V60.1931L140.498 60.6131V62.6531ZM148.978 64.116C148.978 67.276 151.009 69.0071 153.926 68.5059C156.606 68.0452 157.769 66.3054 158.321 65.1506L156.291 64.4194C155.956 65.237 155.384 66.0952 154.005 66.3323C152.625 66.5694 151.58 65.7689 151.521 64.4191L158.637 63.1964V62.3364C158.637 59.2964 156.764 57.5381 153.886 58.0326C151.009 58.5271 148.978 60.956 148.978 64.116ZM151.541 62.5357C151.698 61.4086 152.526 60.4263 153.867 60.196C155.148 59.9759 155.995 60.6302 156.114 61.7499L151.541 62.5357ZM162.659 52.7251L160.176 53.1519V67.1519L162.659 66.7251V52.7251ZM167.356 51.9181L164.873 52.3448V66.3448L167.356 65.9181V51.9181ZM169.057 52.8258C169.057 53.8458 169.826 54.4138 170.811 54.2444C171.797 54.0751 172.566 53.243 172.566 52.223C172.566 51.203 171.797 50.6351 170.811 50.8044C169.826 50.9738 169.057 51.8058 169.057 52.8258ZM172.053 55.191L169.569 55.6178V65.5378L172.053 65.111V55.191ZM181.52 53.5643V54.9043L181.323 54.9382C180.731 54.1798 179.785 53.5824 178.09 53.8737C175.764 54.2733 173.675 56.6323 173.675 59.7123C173.675 62.7923 175.764 64.4333 178.09 64.0337C179.785 63.7424 180.731 62.7998 181.283 61.925L181.481 61.8911V62.8511C181.481 64.7711 180.377 65.8408 178.76 66.1185C177.144 66.3962 176.316 65.6585 175.981 64.5761L173.754 65.9388C174.266 67.3507 175.764 68.7533 178.8 68.2317C181.914 67.6966 183.964 65.6843 183.964 62.4843V53.1443L181.52 53.5643ZM178.839 61.7449C177.302 62.0091 176.159 61.0856 176.159 59.2856C176.159 57.4856 177.302 56.1691 178.839 55.9049C180.377 55.6408 181.52 56.5643 181.52 58.3643C181.52 60.1643 180.377 61.4808 178.839 61.7449ZM185.571 57.8282C185.571 60.9882 187.601 62.7194 190.518 62.2181C193.199 61.7575 194.362 60.0176 194.914 58.8628L192.884 58.1317C192.549 58.9492 191.977 59.8075 190.597 60.0446C189.217 60.2816 188.173 59.4812 188.114 58.1313L195.229 56.9086V56.0486C195.229 53.0086 193.357 51.2504 190.479 51.7449C187.601 52.2394 185.571 54.6682 185.571 57.8282ZM188.133 56.2479C188.291 55.1208 189.119 54.1386 190.459 53.9083C191.74 53.6881 192.588 54.3425 192.706 55.4621L188.133 56.2479ZM196.768 50.9441V60.8641L199.252 60.4374V55.3174C199.252 53.4774 200.139 52.245 201.657 51.9842C202.997 51.7538 203.746 52.3651 203.746 53.8651V59.6651L206.23 59.2384V53.3184C206.23 50.8584 204.712 49.4192 202.426 49.8121C200.632 50.1203 199.804 51.0625 199.41 51.9703L199.213 52.0042V50.5242L196.768 50.9441ZM207.727 54.0212C207.727 57.1012 209.974 58.8751 212.812 58.3873C215.552 57.9165 217.149 56.0222 217.7 53.7474L215.296 53.5806C215.079 54.8978 214.35 55.9232 212.852 56.1806C211.353 56.438 210.21 55.5144 210.21 53.5944C210.21 51.6744 211.353 50.358 212.852 50.1006C214.35 49.8432 215.079 50.6778 215.217 51.8541L217.622 50.9209C217.188 48.7754 215.532 47.4399 212.812 47.9073C209.974 48.3951 207.727 50.9412 207.727 54.0212ZM218.641 52.1458C218.641 55.3058 220.671 57.0369 223.588 56.5356C226.269 56.075 227.432 54.3352 227.984 53.1803L225.954 52.4492C225.619 53.2668 225.047 54.125 223.667 54.3621C222.287 54.5992 221.243 53.7987 221.184 52.4488L228.299 51.2261V50.3661C228.299 47.3261 226.427 45.5679 223.549 46.0624C220.671 46.5569 218.641 48.9858 218.641 52.1458ZM221.203 50.5655C221.361 49.4384 222.189 48.4561 223.529 48.2258C224.81 48.0056 225.658 48.66 225.776 49.7797L221.203 50.5655ZM239.744 39.1996C236.787 39.7076 234.875 41.5562 234.875 44.1162C234.875 46.6762 236.511 47.3751 239.409 47.5172L239.862 47.5393C241.636 47.6344 242.563 47.8753 242.563 49.0353C242.563 50.1553 241.676 51.1077 239.902 51.4125C238.128 51.7173 237.044 51.0636 237.044 49.3836V49.1836L234.481 49.6239V49.8239C234.481 52.8639 236.708 54.2812 239.902 53.7325C243.095 53.1838 245.125 51.075 245.125 48.515C245.125 45.955 243.253 45.2367 240.316 45.1014L239.862 45.0793C238.167 44.9906 237.438 44.6359 237.438 43.5959C237.438 42.5559 238.167 41.7906 239.744 41.5196C241.321 41.2486 242.287 41.7227 242.287 43.3227V43.6427L244.849 43.2024V42.8824C244.849 39.8424 242.701 38.6915 239.744 39.1996ZM246.109 47.4258C246.109 50.6658 248.317 52.2865 251.234 51.7852C254.152 51.2839 256.359 48.9046 256.359 45.6646C256.359 42.4246 254.152 40.8039 251.234 41.3052C248.317 41.8065 246.109 44.1858 246.109 47.4258ZM248.593 46.9991C248.593 45.0791 249.697 43.7694 251.234 43.5052C252.772 43.241 253.876 44.1713 253.876 46.0913C253.876 48.0113 252.772 49.321 251.234 49.5852C249.697 49.8494 248.593 48.9191 248.593 46.9991ZM257.389 45.4876C257.389 48.5676 259.636 50.3414 262.475 49.8537C265.215 49.3829 266.811 47.4886 267.363 45.2137L264.958 45.047C264.742 46.3642 264.012 47.3895 262.514 47.6469C261.016 47.9043 259.873 46.9808 259.873 45.0608C259.873 43.1408 261.016 41.8243 262.514 41.5669C264.012 41.3095 264.742 42.1442 264.88 43.3205L267.284 42.3873C266.851 40.2418 265.195 38.9063 262.475 39.3737C259.636 39.8614 257.389 42.4076 257.389 45.4876ZM268.383 35.7586C268.383 36.7786 269.151 37.3465 270.137 37.1772C271.122 37.0078 271.891 36.1757 271.891 35.1557C271.891 34.1357 271.122 33.5678 270.137 33.7372C269.151 33.9065 268.383 34.7386 268.383 35.7586ZM271.379 38.1238L268.895 38.5505V48.4705L271.379 48.0438V38.1238ZM273 42.8051C273 45.9651 275.031 47.6962 277.948 47.195C280.629 46.7343 281.792 44.9945 282.344 43.8397L280.313 43.1085C279.978 43.9261 279.407 44.7843 278.027 45.0214C276.647 45.2585 275.602 44.458 275.543 43.1082L282.659 41.8855V41.0255C282.659 37.9855 280.786 36.2272 277.909 36.7217C275.031 37.2162 273 39.6451 273 42.8051ZM275.563 41.2248C275.721 40.0977 276.548 39.1154 277.889 38.8851C279.17 38.665 280.018 39.3193 280.136 40.439L275.563 41.2248ZM283.077 38.1536L285.521 37.7337V43.3737C285.521 44.7337 286.388 45.4646 287.689 45.2411L290.449 44.7669V42.7269L288.557 43.0521C288.202 43.113 288.005 42.9469 288.005 42.5469V37.3069L290.685 36.8463V34.8063L288.005 35.2669V32.1869L285.521 32.6137V35.6937L283.077 36.1136V38.1536ZM299.318 33.3229L296.736 40.9266L296.539 40.9604L293.957 34.2441L291.276 34.7048L295.337 44.567L293.957 48.1641L296.637 47.7035L301.999 32.8622L299.318 33.3229ZM44.5279 100.024V114.024L49.2586 113.211C52.9643 112.574 54.9354 110.316 54.9354 106.556V103.916C54.9354 100.156 52.9643 98.5742 49.2586 99.211L44.5279 100.024ZM47.1298 101.977L49.298 101.604C51.3874 101.245 52.3335 102.243 52.3335 104.283V107.083C52.3335 109.123 51.3874 110.445 49.298 110.804L47.1298 111.177V101.977ZM59.0789 101.604L56.6347 102.024V111.944L59.1183 111.517V105.757C59.1183 104.357 60.025 103.521 61.2866 103.304L62.7452 103.054V100.934L61.7202 101.11C60.4784 101.323 59.6505 101.845 59.276 102.97L59.0789 103.004V101.604ZM63.81 109.091C63.81 110.211 64.6182 110.852 65.6826 110.669C66.747 110.486 67.5552 109.567 67.5552 108.447C67.5552 107.327 66.747 106.686 65.6826 106.869C64.6182 107.052 63.81 107.971 63.81 109.091ZM74.3704 103.576C74.3704 107.176 76.6175 108.79 80.0867 108.194C83.5558 107.598 85.5269 105.259 85.5269 101.939V99.8989L79.6136 100.915V103.155L82.9645 102.579V102.699C82.9645 104.299 81.9789 105.509 80.0867 105.834C78.1944 106.159 76.9723 105.129 76.9723 103.169V99.7289C76.9723 97.7689 78.1944 96.3189 80.0867 95.9937C81.9789 95.6686 82.8462 96.6396 82.8462 98.0796V98.3596L85.4481 97.9125V97.6725C85.4481 94.7125 83.5558 93.0376 80.0867 93.6337C76.6175 94.2299 74.3704 96.616 74.3704 100.216V103.576ZM86.6303 101.829C86.6303 105.069 88.8379 106.69 91.7552 106.189C94.6724 105.687 96.8801 103.308 96.8801 100.068C96.8801 96.8281 94.6724 95.2074 91.7552 95.7087C88.8379 96.21 86.6303 98.5893 86.6303 101.829ZM89.1139 101.403C89.1139 99.4826 90.2177 98.1729 91.7552 97.9087C93.2926 97.6445 94.3965 98.5749 94.3965 100.495C94.3965 102.415 93.2926 103.725 91.7552 103.989C90.2177 104.253 89.1139 103.323 89.1139 101.403ZM98.5016 108.749L100.985 108.323V103.043L101.182 103.009C101.734 103.714 102.68 104.311 104.376 104.02C106.701 103.62 108.791 101.261 108.791 98.0215C108.791 94.7815 106.701 93.1405 104.376 93.5401C102.68 93.8314 101.734 94.754 101.143 95.7156L100.946 95.7495V94.4095L98.5016 94.8295V108.749ZM103.627 101.989C102.089 102.253 100.946 101.329 100.946 99.3695C100.946 97.4095 102.089 96.093 103.627 95.8289C105.164 95.5647 106.307 96.4882 106.307 98.4482C106.307 100.408 105.164 101.725 103.627 101.989ZM110.279 95.3257L112.566 95.7128C112.743 94.7823 113.335 94.0007 114.576 93.7873C115.838 93.5706 116.39 94.1957 116.39 95.1157V95.6757L113.709 96.1364C111.501 96.5157 109.925 97.8467 109.925 99.8867C109.925 101.927 111.501 102.796 113.512 102.45C115.325 102.139 115.976 101.027 116.153 100.556L116.429 100.509V101.669L118.795 101.263V94.8825C118.795 92.4025 117.178 91.3402 114.616 91.7806C112.073 92.2175 110.752 93.7444 110.279 95.3257ZM112.408 99.3999C112.408 98.7199 112.96 98.1451 113.886 97.9859L116.39 97.5557V97.7157C116.39 99.0357 115.404 100.085 114.024 100.322C112.96 100.505 112.408 100.1 112.408 99.3999ZM123.372 86.476L120.888 86.9027V100.903L123.372 100.476V86.476ZM130.385 93.9508C130.385 97.5508 132.632 99.1647 136.102 98.5686C139.571 97.9725 141.542 95.6338 141.542 92.3138V90.2738L135.629 91.2899V93.5299L138.979 92.9541V93.0741C138.979 94.6741 137.994 95.8835 136.102 96.2086C134.209 96.5338 132.987 95.5037 132.987 93.5437V90.1037C132.987 88.1437 134.209 86.6938 136.102 86.3686C137.994 86.0435 138.861 87.0144 138.861 88.4544V88.7344L141.463 88.2873V88.0473C141.463 85.0873 139.571 83.4125 136.102 84.0086C132.632 84.6047 130.385 86.9908 130.385 90.5908V93.9508ZM152.737 95.4301V85.5101L150.254 85.9368V91.0568C150.254 92.8968 149.367 94.1292 147.849 94.39C146.509 94.6204 145.76 94.0091 145.76 92.5091V86.7091L143.276 87.1358V93.0558C143.276 95.5158 144.794 96.955 147.08 96.5621C148.874 96.2539 149.702 95.3117 150.096 94.4039L150.293 94.3701V95.8501L152.737 95.4301ZM154.94 99.0516L157.424 98.6248V93.3448L157.621 93.3109C158.173 94.0161 159.119 94.6135 160.814 94.3222C163.14 93.9226 165.229 91.5636 165.229 88.3236C165.229 85.0836 163.14 83.4426 160.814 83.8422C159.119 84.1335 158.173 85.0561 157.581 86.0177L157.384 86.0516V84.7116L154.94 85.1316V99.0516ZM160.065 92.291C158.528 92.5551 157.384 91.6316 157.384 89.6716C157.384 87.7116 158.528 86.3951 160.065 86.131C161.602 85.8668 162.746 86.7903 162.746 88.7503C162.746 90.7103 161.602 92.0268 160.065 92.291ZM165.715 85.3201L168.159 84.9001V90.5401C168.159 91.9001 169.026 92.6311 170.327 92.4076L173.087 91.9334V89.8934L171.195 90.2185C170.84 90.2795 170.643 90.1134 170.643 89.7134V84.4734L173.323 84.0127V81.9727L170.643 82.4334V79.3534L168.159 79.7801V82.8601L165.715 83.2801V85.3201ZM174.86 84.2287L177.147 84.6158C177.324 83.6853 177.915 82.9037 179.157 82.6903C180.419 82.4735 180.971 83.0987 180.971 84.0187V84.5787L178.29 85.0393C176.082 85.4187 174.505 86.7496 174.505 88.7896C174.505 90.8296 176.082 91.6987 178.093 91.3532C179.906 91.0416 180.557 89.9298 180.734 89.4593L181.01 89.4119V90.5719L183.375 90.1655V83.7855C183.375 81.3055 181.759 80.2432 179.197 80.6835C176.654 81.1205 175.333 82.6474 174.86 84.2287ZM176.989 88.3029C176.989 87.6229 177.541 87.048 178.467 86.8889L180.971 86.4587V86.6187C180.971 87.9387 179.985 88.9881 178.605 89.2251C177.541 89.408 176.989 89.0029 176.989 88.3029Z" fill="#00B9FF"/>
<path d="M69.7774 220.66C69.7774 204.7 58.8968 196.129 43.2856 198.812L6.85947 205.071V289.071L22.4707 286.388V255.188L36.0714 252.851L51.2095 281.45L68.8312 278.422L51.8008 248.949C62.5631 243.979 69.7774 233.5 69.7774 220.66ZM22.4707 216.788L41.7482 213.476C49.199 212.196 54.1662 216.022 54.1662 223.342C54.1662 230.662 49.199 236.316 41.7482 237.596L22.4707 240.908V216.788ZM79.7367 192.548V276.548L134.849 267.078V252.678L95.3479 259.466V238.706L130.828 232.609V218.209L95.3479 224.306V204.266L134.139 197.6V183.2L79.7367 192.548ZM161.549 178.49L138.368 266.474L154.334 263.73L159.302 244.157L188.159 239.198L193.126 257.064L209.092 254.321L185.912 174.304L161.549 178.49ZM163.086 229.106L173.139 189.459L174.321 189.256L184.374 225.448L163.086 229.106ZM243.456 162.736C225.716 165.785 214.244 176.876 214.244 192.236C214.244 207.596 224.06 211.789 241.445 212.642L244.165 212.774C254.809 213.345 260.368 214.79 260.368 221.75C260.368 228.47 255.046 234.185 244.402 236.014C233.758 237.843 227.253 233.92 227.253 223.84V222.64L211.879 225.282V226.482C211.879 244.722 225.243 253.226 244.402 249.934C263.561 246.642 275.743 233.988 275.743 218.628C275.743 203.268 264.507 198.959 246.885 198.147L244.165 198.014C233.994 197.482 229.619 195.354 229.619 189.114C229.619 182.874 233.994 178.282 243.456 176.656C252.917 175.03 258.712 177.875 258.712 187.475V189.395L274.087 186.753V184.833C274.087 166.593 261.196 159.688 243.456 162.736ZM282.122 189.692V209.852C282.122 231.452 295.367 241.176 316.182 237.6C336.997 234.023 350.243 219.747 350.243 198.147V177.987C350.243 156.387 336.997 146.663 316.182 150.24C295.367 153.816 282.122 168.092 282.122 189.692ZM297.733 186.53C297.733 175.01 304.592 166.391 316.182 164.4C327.773 162.408 334.632 168.669 334.632 180.189V201.309C334.632 212.829 327.773 221.448 316.182 223.44C304.592 225.431 297.733 219.17 297.733 207.65V186.53ZM360.62 144.284V228.284L376.231 225.601V157.681L377.414 157.478L397.401 221.964L424.248 217.35V133.35L408.636 136.033V203.953L407.454 204.156L387.467 139.671L360.62 144.284Z" fill="white"/>
</svg>
